HIERARCHY
ROOT Hips
{
	OFFSET	0.00	0.00	0.00
	CHANNELS 6 Xposition Yposition Zposition Zrotation Xrotation Yrotation
	JOINT LeftUpLeg
	{
		OFFSET	 0.126116	-0.014019	-0.065224
		CHANNELS 3 Zrotation Xrotation Yrotation
		JOINT LeftLeg
		{
			OFFSET	 0.000000	 0.000000	 0.569914
			CHANNELS 3 Zrotation Xrotation Yrotation
			JOINT LeftFoot
			{
				OFFSET	 0.000000	 0.000000	 0.544423
				CHANNELS 3 Zrotation Xrotation Yrotation
				JOINT LeftToeBase
				{
					OFFSET	 0.000000	 0.000000	 0.207117
					CHANNELS 3 Zrotation Xrotation Yrotation
					End Site
					{
						OFFSET	 0.000000	 0.000000	 0.207117
					}
				}
			}
		}
	}
	JOINT RightUpLeg
	{
		OFFSET	-0.124023	-0.008373	-0.065224
		CHANNELS 3 Zrotation Xrotation Yrotation
		JOINT RightLeg
		{
			OFFSET	 0.000000	 0.000000	 0.570047
			CHANNELS 3 Zrotation Xrotation Yrotation
			JOINT RightFoot
			{
				OFFSET	 0.000000	 0.000000	 0.544354
				CHANNELS 3 Zrotation Xrotation Yrotation
				JOINT RightToeBase
				{
					OFFSET	 0.000000	 0.000000	 0.207540
					CHANNELS 3 Zrotation Xrotation Yrotation
					End Site
					{
						OFFSET	 0.000000	 0.000000	 0.207540
					}
				}
			}
		}
	}
	JOINT Spine
	{
		OFFSET	 0.000184	-0.007763	 0.117403
		CHANNELS 3 Zrotation Xrotation Yrotation
		JOINT Spine1
		{
			OFFSET	 0.000000	 0.000000	 0.137269
			CHANNELS 3 Zrotation Xrotation Yrotation
			JOINT Spine2
			{
				OFFSET	 0.000000	 0.000000	 0.156879
				CHANNELS 3 Zrotation Xrotation Yrotation
				JOINT LeftShoulder
				{
					OFFSET	 0.080501	-0.002496	 0.160144
					CHANNELS 3 Zrotation Xrotation Yrotation
					JOINT LeftArm
					{
						OFFSET	 0.000000	 0.000000	 0.164363
						CHANNELS 3 Zrotation Xrotation Yrotation
						JOINT LeftForeArm
						{
							OFFSET	 0.000000	 0.000000	 0.364576
							CHANNELS 3 Zrotation Xrotation Yrotation
							JOINT LeftHand
							{
								OFFSET	 0.000000	 0.000000	 0.360812
								CHANNELS 3 Zrotation Xrotation Yrotation
								JOINT LeftHandIndex1
								{
									OFFSET	 0.000000	 0.000000	 0.086006
									CHANNELS 3 Zrotation Xrotation Yrotation
									JOINT LeftHandIndex2
									{
										OFFSET	 0.000000	 0.000000	 0.047236
										CHANNELS 3 Zrotation Xrotation Yrotation
										JOINT LeftHandIndex3
										{
											OFFSET	-0.004284	-0.000551	 0.038166
											CHANNELS 3 Zrotation Xrotation Yrotation
											End Site
											{
												OFFSET	-0.004284	-0.000551	 0.038166
											}
										}
									}
								}
							}
						}
					}
				}
				JOINT Neck
				{
					OFFSET	 0.000000	 0.000000	 0.176489
					CHANNELS 3 Zrotation Xrotation Yrotation
					JOINT Head
					{
						OFFSET	 0.000000	-0.001747	 0.077940
						CHANNELS 3 Zrotation Xrotation Yrotation
						End Site
						{
							OFFSET	 0.000000	-0.001747	 0.077940
						}
					}
				}
				JOINT RightShoulder
				{
					OFFSET	-0.080363	 0.000306	 0.159706
					CHANNELS 3 Zrotation Xrotation Yrotation
					JOINT RightArm
					{
						OFFSET	 0.000000	 0.000000	 0.164196
						CHANNELS 3 Zrotation Xrotation Yrotation
						JOINT RightForeArm
						{
							OFFSET	 0.000000	 0.000000	 0.365611
							CHANNELS 3 Zrotation Xrotation Yrotation
							JOINT RightHand
							{
								OFFSET	 0.000000	 0.000000	 0.360648
								CHANNELS 3 Zrotation Xrotation Yrotation
								JOINT RightHandIndex1
								{
									OFFSET	 0.000000	 0.000000	 0.069977
									CHANNELS 3 Zrotation Xrotation Yrotation
									JOINT RightHandIndex2
									{
										OFFSET	 0.000000	 0.000000	 0.052305
										CHANNELS 3 Zrotation Xrotation Yrotation
										JOINT RightHandIndex3
										{
											OFFSET	 0.009002	-0.000782	 0.042196
											CHANNELS 3 Zrotation Xrotation Yrotation
											End Site
											{
												OFFSET	 0.009002	-0.000782	 0.042196
											}
										}
									}
								}
							}
						}
					}
				}
			}
		}
	}
}
MOTION
Frames:    6
Frame Time: 0.03333334
-0.055034	-2.217699	 1.162122	 3.900588	-1.766406	-2.970696	 31.464770	-15.936120	-177.074800	 0.126184	-50.516960	-0.177644	 112.759800	 82.136570	-116.773500	-2.371674	 31.229740	-0.061226	-33.767670	-35.192680	-175.673000	 12.790240	-61.616970	 11.985930	 3.084760	 74.513230	 4.866695	 2.357720	 33.183670	 0.107492	-14.613310	 9.716974	 2.096886	-1.312700	 0.005130	-0.903606	 1.031550	 1.089263	 0.762516	-93.737850	 58.830270	 175.831400	 6.883632	 27.595760	-40.250920	 14.746560	-2.038949	-7.449689	-14.615970	-4.555851	-7.066932	-4.869270	 19.253970	-2.789209	-3.891298	 21.347550	 2.212686	-4.807230	 5.557657	 0.146258	-0.134555	-5.004834	 0.154126	-1.194780	 3.809005	 3.023149	 89.843380	 61.554440	-179.854500	-18.386650	 47.208160	 16.551780	-16.291520	-2.088771	 7.487275	 10.284480	 7.528448	-1.205770	 6.306216	 26.136380	-0.578470	 1.709643	 46.083330	-6.835749	 0.320922	 25.169710	 3.673651
-0.057769	-2.281665	 1.161562	 5.017781	-1.172678	-2.894384	 29.531450	-13.261150	-178.896300	 1.079152	-49.306460	 0.550804	 130.127900	 82.646840	-134.231100	-2.369648	 31.573510	-0.068981	-37.912700	-38.466610	 179.290400	 11.620900	-54.081220	 10.078690	-10.004570	 76.159150	 18.912330	 2.358837	 33.019720	 0.103685	-22.773430	 9.372284	 1.969492	-1.646916	 0.308589	-1.075466	 1.186010	 0.625737	 0.963998	-93.945910	 59.007050	 175.366700	 4.748337	 24.177490	-41.067850	 16.842380	-2.984219	-8.894938	-14.294900	-4.387703	-8.940052	-4.869032	 19.248950	-2.786539	-3.883677	 21.445340	 2.204939	-4.808272	 5.545353	 0.146974	-0.073130	-5.078422	 0.185558	-0.838881	 3.603391	 2.807269	 89.776550	 61.652530	 179.986800	-18.605670	 49.221210	 13.961150	-20.004090	-3.051724	 8.933637	 10.610310	 8.072361	-1.649452	 6.293137	 24.779630	-0.538061	 1.898323	 44.596850	-7.004541	 0.549601	 24.173750	 3.556463
-0.060460	-2.336734	 1.157069	 5.888943	-0.352927	-2.910975	 28.075880	-11.367570	 179.805300	 1.491243	-48.551970	 0.853439	 146.448900	 82.538070	-150.373200	-2.368143	 31.822280	-0.074625	-41.516530	-40.486710	 174.554700	 11.121420	-46.117880	 8.621422	-24.306910	 76.852580	 33.075340	 2.359052	 32.988860	 0.102961	-29.323040	 8.797617	 1.780913	-1.882940	 0.550593	-1.046650	 1.302385	 0.212656	 1.060155	-94.161620	 59.019920	 174.904700	 2.815832	 21.324490	-41.572060	 19.314150	-3.942535	-10.069460	-13.788960	-4.584921	-9.855384	-4.862516	 19.425590	-2.800217	-3.871551	 21.600220	 2.192617	-4.803277	 5.604241	 0.143531	-0.028067	-5.112905	 0.246899	-0.582878	 3.440118	 2.688226	 89.695180	 61.751250	 179.791900	-18.521190	 50.723500	 11.836770	-23.467210	-4.020635	 10.103410	 10.563740	 8.506751	-2.122952	 6.271640	 23.222210	-0.556308	 2.078802	 43.088880	-7.164628	 0.868876	 22.753010	 3.398345
-0.064046	-2.401730	 1.149144	 6.403875	 0.526148	-3.233768	 26.924760	-8.618237	 178.466900	 1.765364	-47.212400	 1.036813	 165.426200	 81.508290	-169.073000	-2.365541	 32.241170	-0.084176	-43.518360	-42.326810	 170.237200	 10.910440	-37.868390	 7.224788	-31.872180	 75.708350	 39.716990	 2.361380	 32.640060	 0.094888	-35.487400	 8.020027	 1.867360	-2.140779	 0.948427	-1.041996	 1.457056	-0.199345	 1.146781	-94.370340	 58.946500	 174.470800	 0.911247	 18.755660	-42.107000	 21.380980	-5.067900	-11.214090	-14.014060	-5.431495	-9.679362	-4.846240	 19.808360	-2.818914	-3.850991	 21.861520	 2.171728	-4.790745	 5.751750	 0.134873	-0.005171	-5.183448	 0.314660	-0.366247	 3.266933	 2.665221	 89.557580	 61.920490	 179.459400	-18.065450	 52.189130	 9.469300	-27.631420	-5.165174	 11.239420	 10.276630	 8.912604	-3.268023	 6.237492	 21.204160	-0.621482	 2.258293	 41.499370	-7.322382	 1.308790	 20.738340	 3.191433
-0.068085	-2.457185	 1.139061	 6.547682	 0.942922	-3.526892	 26.108640	-5.736022	 177.126300	 1.873902	-45.887240	 1.092295	 179.049500	 80.622980	 177.655600	-2.359299	 33.187260	-0.106013	-43.346560	-45.604060	 167.399200	 10.666190	-34.844970	 6.586001	-52.428890	 79.673890	 59.139780	 2.353450	 33.787990	 0.121646	-39.904980	 7.424993	 2.034856	-2.321280	 1.713539	-1.050599	 1.657760	-0.647242	 1.223095	-94.471190	 58.874380	 174.267800	-0.657283	 17.329950	-42.685410	 23.060950	-6.069629	-12.075100	-14.572630	-5.774432	-9.279022	-4.827281	 20.187050	-2.822511	-3.825872	 22.178310	 2.146211	-4.771808	 5.974091	 0.121761	 0.020836	-5.270561	 0.340899	-0.147424	 3.078705	 2.627980	 89.454860	 62.022660	 179.209000	-17.197520	 53.120720	 7.226464	-31.312430	-6.182691	 12.088070	 10.132450	 8.899455	-4.692198	 6.199277	 19.213480	-0.702169	 2.511577	 39.090690	-7.542206	 1.737443	 18.712980	 3.002619
-0.073814	-2.524366	 1.126338	 6.825473	 1.067087	-3.780061	 25.070470	-1.771503	 175.359600	 2.088381	-43.576670	 1.196627	-167.726800	 80.378270	 164.736600	-2.341119	 35.591180	-0.163181	-43.408190	-49.175600	 164.902200	 11.466280	-34.406860	 6.979490	-73.550830	 81.487010	 78.946830	 2.337251	 35.851620	 0.171203	-44.125040	 7.300800	 2.201411	-2.570143	 1.850201	-1.118513	 1.914736	-1.047406	 1.329575	-94.538990	 58.894150	 174.120500	-2.081846	 16.615130	-42.816250	 25.336730	-7.214581	-12.914280	-15.156470	-6.576681	-9.728914	-4.840461	 20.466700	-2.981414	-3.794248	 22.573410	 2.114099	-4.739558	 6.351073	 0.099347	 0.092432	-5.378687	 0.354153	 0.177494	 2.907207	 2.394605	 89.368350	 61.985710	 179.001300	-15.815980	 53.808410	 4.344709	-35.179740	-7.334863	 12.908760	 10.296220	 8.302658	-6.140803	 6.167113	 16.759600	-0.701908	 2.818594	 35.884440	-7.803635	 2.246300	 16.231870	 2.795798
